<?xml version="1.0" encoding="UTF-8"?> <svg xmlns="http://www.w3.org/2000/svg" width="173" height="38"><path d="M158.4 37.8l-1.5-.1-1.4-.2-1.3-.4-1.3-.5-1.2-.6-1.2-.7-1.1-.9-1-.9-1-1.1-.8-1.1-.7-1.2-.6-1.3-.4-1.3-.4-1.3-.2-1.3-.1-1.5.1-1.5.2-1.4.4-1.3.5-1.3.6-1.3.7-1.2.9-1.1.9-1 1.1-1 1.1-.9 1.2-.7 1.3-.6 1.3-.5 1.3-.4 1.4-.2 1.4-.1h.8l.8.1.8.1.8.1.8.2.8.3.6.3.7.4 1.3.7 1.3.9.6.5.6.6.9.9.6.8.6.9.6.9.5 1.1.4 1.1.3 1.2.4 1.4.1.7.1 15.2h-6.2v-2.1l-.2.2-.6.4-.6.4-.7.4-.7.3-.7.3-.7.2-.8.2-.8.1-.8.1-.8.1h-1zm-.2-6.1h.6l1.1-.1 1.1-.2.5-.1 1-.4 1-.6.4-.3.4-.4.9-.9.4-.6.3-.5.4-1 .2-.4.3-1.1.1-.6.1-.6v-.6l-.1-.9-.1-.9-.2-.8-.3-.8-.4-.7-.4-.7-.5-.6-.6-.6-.6-.6-.6-.5-.6-.4-.7-.4-.7-.3-.8-.2-.9-.1h-.8l-1.1.1-1.1.2-1 .4-.5.2-.9.6-.4.3-.8.7-.7.9-.3.4-.6 1-.2.5-.4 1.1-.2 1.1-.1.6v1.2l.1 1.1.1.5.1.5.4 1.1.6 1 .6.9.4.4.8.7.4.3.9.6 1 .4.5.1 1 .2h.9zm-40.1 6.1l-1.5-.1-1.4-.2-1.3-.4-1.3-.5-1.2-.6-1.2-.7-1.1-.9-1-.9-1-1.1-.8-1.1-.7-1.2-.6-1.3-.4-1.3-.4-1.3-.2-1.3-.1-1.5.1-1.5.2-1.4.4-1.3.5-1.3.6-1.3.7-1.2.8-1.1.9-1 1.1-1 1.1-.9 1.2-.7 1.3-.6 1.3-.5 1.3-.4 1.4-.2 1.4-.1h.8l.8.1.8.1.8.1.8.2.8.3.7.3.7.4 1.3.7 1.3.9.6.5.6.6.9.9.6.8.6.9.6.9.5 1.1.4 1.2.3 1.2.3 1.4.1.7.1 15.2h-6.2v-2.1l-.2.2-.6.4-.6.4-.7.4-.7.3-.7.3-.7.2-.8.2-.8.1-.8.1-.8.1h-.9zm-.2-6.1h.6l1.1-.1 1.1-.2.5-.1 1-.4 1-.6.4-.3.4-.4.9-.9.4-.6.3-.5.4-1 .2-.5.1-.5.1-.6.1-1.1v-.6l-.1-.9-.1-.9-.2-.8-.3-.8-.4-.7-.4-.7-.5-.6-.6-.6-.6-.6-.6-.5-.6-.4-.7-.4-.7-.3-.7-.1-.9-.1h-.8l-1.1.1-1.1.2-.5.1-1 .4-.9.6-.4.3-.4.4-.4.4-.7.9-.6.9-.5 1-.4 1.1-.1.5-.1 1.1v1.2l.1 1.1.1.5.1.5.4 1.1.6 1 .6.9.4.4.4.4.4.4.4.3.4.3h1l1 .4 1 .2.9.1zm-30.8 6.1h-.9l-.8-.1-.8-.1-.8-.1-.8-.2-.7-.3-.7-.3-.6-.4-1.3-.8-1.3-.9-.7-.6-.7-.6-.7-.7-.9-1.1-.6-.9-.6-1-.5-1.1-.4-1.1-.3-1.2-.1-1.3V0H79v11.6l.2-.1.6-.4.6-.4.7-.4.7-.4.7-.3.7-.2.8-.2.8-.1.8-.1.8-.1h.8l1.5.1 1.4.2 1.3.4 1.3.5 1.2.6 1.1.7 1.1.9 1 .9 1 1.1.9 1.1.7 1.2.6 1.3.4 1.3.3 1.3.2 1.3.1 1.5-.1 1.5-.2 1.4-.4 1.3-.5 1.3-.6 1.3-.7 1.2-.8 1.3-1 1.1-1.1 1-1.1.9-1.2.7-1.2.6-1.3.5-1.3.4-1.4.2-1.3-.2zM86 31.6l.9.1 1.1-.1 1.1-.2 1-.4.9-.5.4-.3.4-.3.4-.4.4-.4.7-.9.3-.4.6-1 .4-1 .3-1.1.1-1.1v-1.2l-.1-1.1-.3-1.1-.2-.5-.5-1-.3-.5-.6-.9-.7-.8-.9-.6-.9-.6-1-.4-1-.3-.5.3-1.1-.1-1.1.1-1.1.2-.5.1-1 .4-1 .6-.4.3-.4.4-.9.9-.4.6-.3.5-.2.5-.2.5-.2.5-.1.5-.1.6-.2.5-.1 1.2.1.9.2.9.2.8.3.8.4.7.4.7.5.6.6.6.6.6.6.5.6.4.7.4.7.3.8.2h.6zm-41.7 6.2l-1.5-.1-1.4-.2-1.4-.4-1.3-.5-1.2-.6-1.2-.7-1.1-.9-1-.9-.9-1.1-.9-1.1-.7-1.2-.6-1.3-.4-1.3-.3-1.3-.2-1.4-.1-1.4.1-1.5.2-1.4.4-1.3.5-1.3.6-1.3.7-1.2.9-1.1.9-1 1.1-1.1 1.1-.9 1.2-.7L39 10l1.3-.5 1.3-.4 1.4-.2 1.4-.1h.9l.7.1.8.1.8.1.8.2.8.3.7.3.7.4 1.3.7 1.3.9.6.5.6.6.9.9.6.8.6.9.6.9.5 1.1.4 1.1.3 1.2.2 1.3.1.7.1 15.3h-6.2v-2.1l-.2.2-.6.4-.7.4-.7.4-.7.3-.7.2-.7.2-.8.2-.8.2-.8.1-.8.1h-.7zm-.2-6.1h.6l1.1-.1 1.1-.2.5-.1 1-.4 1-.6.4-.3.4-.4.9-.9.4-.6.3-.5.4-1 .2-.5.1-.5.1-.6.1-.6.1-1.2-.1-.9-.1-.9-.2-.8-.3-.6-.4-.7-.4-.7-.5-.6-.6-.6-.6-.6-.5-.4-.6-.4-.7-.4-.8-.3-.8-.2-.9-.1h-1.9l-1.1.2-.9.4-.5.2-.9.6-.4.3-.4.4-.4.4-.4.4-.4.4-.3.4-.6 1-.4 1-.3 1.1-.1.5-.1 1.1.1 1.1.2 1.1.4 1.1.5 1 .6.9.4.4.4.4.4.4.4.4.4.3.9.6 1 .4.5.1 1 .2.7-.1zm-29.7 6.1h-.9l-.8-.1-.7-.2-.8-.1-.8-.2-.7-.3-.7-.3-.7-.4-1.4-.8-1.3-.9-.7-.6-.7-.6-.7-.7-.9-1.1-.6-.9-.6-1-.5-1.1-.4-1.1-.3-1.2-.2-1.3V.1h6.2v11.6l.2-.2.6-.4.6-.4.7-.4.7-.4.7-.3.7-.2.8-.2.8-.1.9-.1.8-.1h.8l1.4.1 1.4.2 1.3.4 1.3.5 1.2.6 1.1.7 1.1.9 1 .9 1 1.1.9 1.1.7 1.2.6 1.3.4 1.3.3 1.3.2 1.3.1 1.5-.1 1.4-.1 1.4-.3 1.5-.5 1.3-.6 1.3-.7 1.2-.9 1.1-1 1.1-1.1 1-1.1.9-1.1.6-1.2.6-1.3.5-1.3.4-1.4.2h-1.4zm-1.2-6.2l.9.1 1.1-.1 1.1-.2 1-.4.9-.5.4-.3.9-.6.4-.4.7-.9.3-.4.6-1 .4-1 .3-1.1.1-.5.1-.6v-1.2l-.1-1.1-.3-1.1-.4-1.1-.6-1-.3-.4-.7-.9-.5.1-.9-.6-.9-.6-1-.4-.5-.1-1-.2-1.1-.1h-1l-1.1.2-.5.1-1 .4-1 .6-.4.3-.4.4-.9.9-.4.6-.5.9-.2.5-.4 1-.1.6-.1.5-.1 1.2.1.9.2 1.2.2.8.3.7.4.7.4.6.6.6.6.6.5.7.6.6.7.4.7.3.8.2.8.1h.3zm128.7 5.6h-6.2V.1h6.2v37.1zm-73.4 0h-6.2V.1h6.2v37.1z" fill="#c789da"></path></svg> 