<svg xmlns="http://www.w3.org/2000/svg" width="512" height="512"><path d="M256 0C120.7 0 10.7 110.1 10.7 245.3s110 245.4 245.3 245.4c5.9 0 10.7-4.8 10.7-10.7s-4.8-10.7-10.7-10.7c-123.5 0-224-100.5-224-224s100.5-224 224-224 224 100.5 224 224c0 43.7-12.6 86.1-36.4 122.5-3.2 4.9-1.8 11.5 3.1 14.8 4.9 3.2 11.5 1.9 14.7-3.1 26.1-39.9 39.9-86.3 39.9-134.2C501.3 110.1 391.3 0 256 0z"/><path d="M371 153.3c-3.7-4.6-10.4-5.3-15-1.7l-89.3 71.5V53.3c0-5.9-4.8-10.7-10.7-10.7s-10.7 4.8-10.7 10.7v192c0 4.1 2.3 7.8 6 9.6 1.5.7 3.1 1 4.6 1 2.4 0 4.7-.8 6.7-2.3l106.7-85.3c4.7-3.7 5.4-10.4 1.7-15zM298.7 362.7H276l31.6-47.4c3.3-4.9 1.9-11.5-3-14.8-4.9-3.2-11.5-1.9-14.8 3l-42.7 64c-2.2 3.3-2.4 7.5-.5 10.9 1.8 3.5 5.4 5.6 9.4 5.6h32v10.7c0 5.9 4.8 10.7 10.7 10.7s10.7-4.8 10.7-10.7v-21.3c-.1-6-4.8-10.7-10.7-10.7z"/><path d="M234.7 384h-16.9l9.4-9.4c11.7-11.7 18.2-27.3 18.2-43.9 0-17.6-14.4-32-32-32s-32 14.4-32 32c0 5.9 4.8 10.7 10.7 10.7s10.7-4.8 10.7-10.7 4.8-10.7 10.7-10.7c5.9 0 10.7 4.8 10.7 10.7 0 10.9-4.3 21.1-11.9 28.8l-27.6 27.6c-3 3.1-3.9 7.6-2.3 11.6s5.5 6.6 9.9 6.6H235c5.9 0 10.7-4.8 10.7-10.7s-5.1-10.6-11-10.6zM388.3 299.6c-5.4-2.4-11.7 0-14.1 5.4l-85.3 192c-2.4 5.4 0 11.7 5.4 14.1 1.4.6 2.9.9 4.3.9 4.1 0 8-2.3 9.7-6.3l85.3-192c2.5-5.4.1-11.7-5.3-14.1zM435.8 410.4c-2-3.1-5.4-5.1-9.1-5.1H384c-5.9 0-10.7 4.8-10.7 10.7s4.8 10.7 10.7 10.7h25.4l-35 69.9c-2.6 5.3-.5 11.7 4.8 14.3 1.6.8 3.2 1.1 4.8 1.1 3.9 0 7.7-2.2 9.5-5.9l42.7-85.3c1.7-3.3 1.5-7.3-.4-10.4z"/></svg>