<svg xmlns="http://www.w3.org/2000/svg" viewBox="0 0 511 511"><path d="M476.9 247.8c-2.7-4.5-7.6-7.2-12.8-7.2-44.2 0-84.7 22.7-107.7 59.9H178.8c-20 0-38.8 7.8-52.9 21.9l-88.5 88.5c-5.8 5.8-5.8 15.3 0 21.2 36.4 36.4 74.5 74.2 74.9 74.6 5.8 5.8 15.3 5.8 21.1 0l56.8-56.5h125.4c39.1 0 74.7-21.5 92.8-56.2.5-.9 45.8-87.4 69-131.5 2.4-4.7 2.2-10.3-.5-14.7zm-95.1 132.3c-13 24.7-38.4 40.1-66.3 40.1H183.9c-4 0-7.8 1.6-10.6 4.4L122.7 475c-11.9-11.9-32.4-32.3-53.7-53.5l77.9-77.9c8.5-8.5 19.8-13.2 31.8-13.2h161.5l-11.5 21.9c-2.6 4.9-7.7 8-13.3 8H213.9c-8.3 0-15 6.7-15 15s6.7 15 15 15h101.7c16.8 0 32-9.2 39.8-24.1l23.1-44.1c12.5-23.7 33.9-40.7 58.9-47.9-24 45.5-55.2 105.2-55.6 105.9z"/><path d="M169 270.5h179.6c8.3 0 15-6.7 15-15V74.9c0-8.3-6.7-15-15-15h-44.9v-15c0-24.8-20.1-44.9-44.9-44.9s-44.9 20.1-44.9 44.9v15H169c-8.3 0-15 6.7-15 15v180.6c0 8.3 6.7 15 15 15zm74.8-225.6c0-8.3 6.7-15 15-15s15 6.7 15 15v15h-29.9v-15zm-59.9 44.9h29.9v15c0 8.3 6.7 15 15 15s15-6.7 15-15v-15h29.9v15c0 8.3 6.7 15 15 15s15-6.7 15-15v-15h29.9v150.7H183.9V89.8z"/></svg>