<svg xmlns="http://www.w3.org/2000/svg" width="512" height="512"><path d="M57.7 512h187.8c8.8 0 16-7.2 16-16 0-3.4-.2-145.9-.2-149.3 0-8.8-7.2-16-16-16h-48v-53.3h48c8.8 0 16-7.2 16-16v-60.1c0-52.1 42.4-94.6 94.6-94.6H400V160h-26.7c-20.6 0-37.3 16.7-37.3 37.3v64c0 8.8 7.2 16 16 16h64.9l-13.3 53.3H352c-8.8 0-16 7.2-16 16V496c0 8.8 7.2 16 16 16h102.3c31.9 0 57.7-25.9 57.7-57.7V57.7C512 25.9 486.1 0 454.3 0H57.7C25.9 0 0 25.9 0 57.7v396.5C0 486.1 25.9 512 57.7 512zM32 57.7C32 43.5 43.5 32 57.7 32h396.5c14.2 0 25.7 11.5 25.7 25.7v396.5c0 14.2-11.5 25.7-25.7 25.7H368V362.7h48c7.3 0 13.7-5 15.5-12.1l21.3-85.3c2.5-10.1-5.1-19.9-15.5-19.9H368v-48c0-2.9 2.4-5.3 5.3-5.3H416c8.8 0 16-7.2 16-16V90.7c0-8.8-7.2-16-16-16h-60.1c-69.8 0-126.6 56.8-126.6 126.6v44.1h-48c-8.8 0-16 7.2-16 16v85.3c0 8.8 7.2 16 16 16h48V480H57.7C43.5 480 32 468.5 32 454.3V57.7z"/></svg>