<svg xmlns="http://www.w3.org/2000/svg" width="512" height="512"><path d="M512 103c-32.2 1.5-31.5 1.4-35.1 1.7L496 50.2S436.5 72.1 421.4 76c-39.6-35.6-98.6-37.2-140.7-11.3-34.5 21.2-53 57.6-46.8 100.2-67.1-9.3-123.7-41.1-168.4-94.8l-14.1-17-10.7 19.4C27.4 97 23 125 28.3 151.3c2.2 10.8 5.9 21.1 11 30.8l-12.1-4.7-1.4 20.2c-1.5 20.6 5.4 44.6 18.3 64.2 3.6 5.5 8.3 11.6 14.3 17.6l-6.3-1 7.6 23.2c10 30.5 30.9 54.1 58 67.2-27 11.5-48.9 18.8-84.8 30.6L0 410.3l30.3 16.6c11.6 6.3 52.4 27.4 92.8 33.8 89.8 14 190.9 2.6 258.9-58.7 57.3-51.6 76.1-125 72.2-201.4-.6-11.6 2.6-22.6 8.9-31.1 12.8-17 48.8-66.4 48.9-66.5zm-72.8 48.5c-10.5 14.1-15.8 32-14.9 50.6 3.9 77.1-17 136.8-62.3 177.6-52.9 47.7-138.3 66.4-234.2 51.3-17.4-2.7-35.3-8.8-50.2-14.9 30.1-10.4 53.3-19.6 90.9-37.4l52.4-24.8-57.9-3.7c-27.7-1.8-50.8-15.2-65-37 7.5-.4 14.8-1.7 22-3.7l55.2-15.4-55.6-13.6c-27-6.6-42.4-22.8-50.6-35.2-5.4-8.2-8.9-16.5-11-24.2 5.6 1.5 12.1 2.6 22.6 3.6l51.5 5.1L91.3 198c-29.4-22.9-41.2-57.4-32.5-90.5 91.8 95.2 199.5 88 210.3 90.5-2.4-23.2-2.4-23.2-3.1-25.4-13.9-49.1 16.5-74 30.3-82.5C325 72.6 370.5 69.9 402 99c6.8 6.3 16 8.7 24.6 6.6 7.7-1.9 14.1-4 20.3-6.2L434 136.3h16.5c-3.1 4.2-6.8 9.2-11.3 15.2z"/></svg>