<svg xmlns="http://www.w3.org/2000/svg" width="512" height="491.5"><path d="M497.7 232.7c13-12.6 17.6-31.2 12-48.4-5.6-17.2-20.2-29.5-38.1-32.1l-110.7-16.1c-5.6-.8-10.5-4.3-13-9.4L298.4 26.3C290.3 10.1 274.1 0 256 0s-34.3 10.1-42.4 26.3l-49.5 100.3c-2.5 5.1-7.4 8.6-13 9.4L40.5 152.1C22.6 154.7 8 167 2.4 184.2c-5.6 17.2-1 35.8 11.9 48.4l80.1 78.1c4.1 4 5.9 9.7 5 15.2l-19 110.4c-3.1 17.9 4.1 35.5 18.8 46.2 14.6 10.6 33.7 12 49.7 3.6l99-52.1c5-2.6 11-2.6 16 0l99 52.1c16 8.4 35.1 7 49.7-3.6 14.6-10.6 21.8-28.3 18.8-46.2L412.6 326c-1-5.6.9-11.3 5-15.3l80.1-78z" fill="#353535"/></svg>