<svg xmlns="http://www.w3.org/2000/svg" width="512" height="491.5"><path d="M497.7 232.7c13-12.6 17.6-31.2 12-48.4-5.6-17.2-20.2-29.5-38.1-32.1l-110.7-16.1c-5.6-.8-10.5-4.3-13-9.4L298.4 26.3C290.3 10.1 274.1 0 256 0s-34.3 10.1-42.4 26.3l-49.5 100.3c-2.5 5.1-7.4 8.6-13 9.4L40.5 152.1C22.6 154.7 8 167 2.4 184.2c-5.6 17.2-1 35.8 11.9 48.4l80.1 78.1c4.1 4 5.9 9.7 5 15.2l-19 110.4c-3.1 17.9 4.1 35.5 18.8 46.2 14.6 10.6 33.7 12 49.7 3.6l99-52.1c5-2.6 11-2.6 16 0l99 52.1c16 8.4 35.1 7 49.7-3.6 14.6-10.6 21.8-28.3 18.8-46.2L412.6 326c-1-5.6.9-11.3 5-15.3l80.1-78zm-114.6 98.4L402 441.4c1.1 6.6-1.4 12.9-6.9 16.8-3 2.2-6.5 3.3-10.1 3.3-1.6 0-4.6-.2-8.1-2l-99-52c-6.8-3.5-14.4-5.4-22-5.4s-15.2 1.9-22 5.4l-99 52.1c-6.8 3.6-13.6 2-18.1-1.3-5.4-3.9-8-10.2-6.9-16.9l18.9-110.2c2.6-15.3-2.5-31-13.6-41.8l-80.1-78.1c-4.8-4.7-6.4-11.3-4.4-17.7 2.1-6.4 7.3-10.8 13.9-11.7l110.7-16.1c15.4-2.2 28.7-11.9 35.6-25.8l49.5-100.3c3-6 8.7-9.6 15.5-9.6s12.5 3.6 15.5 9.6L321 139.9c6.9 13.9 20.2 23.6 35.6 25.8 24.5 3.6 71.5 10.4 110.7 16.1 6.6 1 11.8 5.3 13.9 11.7 2.1 6.4.4 13-4.4 17.7l-80.1 78.1c-11.2 10.8-16.2 26.5-13.6 41.8z" fill="#353535"/></svg>