<svg xmlns="http://www.w3.org/2000/svg" width="53" height="8"><path data-name="Фигура 1" d="M50.659 3.418a.594.594 0 01-.97.1L46.145.412c-.3-.267-.6-.6-.9-.233L42.57 3.352a.568.568 0 01-.97.1L38.054.346c-.334-.267-.7-.535-1-.167l-2.676 3.173a.568.568 0 01-.97.1L29.864.346c-.3-.267-.67-.535-1-.167l-2.938 3.454a.576.576 0 01-.736-.115L21.646.412c-.3-.267-.6-.6-.9-.233l-2.675 3.173a.567.567 0 01-.969.1L13.556.346c-.334-.267-.7-.535-1-.167L9.88 3.352a.568.568 0 01-.97.1L5.365.346c-.3-.267-.669-.535-1-.167L0 5.288v1.937l2.274-2.7c.3-.368.735-.068 1 .166l3.545 3.106a.58.58 0 00.936-.1l2.709-3.172c.268-.334.736-.068.97.166l3.544 3.106a.594.594 0 00.97-.1l2.676-3.172c.3-.368.736-.068 1 .166l3.546 3.106a.58.58 0 00.936-.1l2.825-3.274a.825.825 0 01.849.268l3.546 3.106a.58.58 0 00.936-.1l2.708-3.172c.268-.334.736-.068.97.166l3.544 3.106a.594.594 0 00.97-.1l2.676-3.172c.3-.368.736-.068 1 .166l3.545 3.106a.58.58 0 00.936-.1L53 2.617v-1.9z" fill="#a0d758" fill-rule="evenodd"/></svg>